<svg id="_x33_0" enable-background="new 0 0 64 64" height="512" viewBox="0 0 64 64" width="512" xmlns="http://www.w3.org/2000/svg"><g><g><g><path d="m24 45c-7.168 0-13-5.832-13-13s5.832-13 13-13 13 5.832 13 13-5.832 13-13 13zm0-15c-1.103 0-2 .897-2 2s.897 2 2 2 2-.897 2-2-.897-2-2-2z" fill="#f0bc5e"/></g></g><g><path d="m23 19h2v4h-2z"/><path d="m15.222 22.222h2v4h-2z" transform="matrix(.707 -.707 .707 .707 -12.376 18.565)"/><path d="m11 31h4v2h-4z"/><path d="m14.222 38.778h4v2h-4z" transform="matrix(.707 -.707 .707 .707 -23.376 23.121)"/><path d="m23 41h2v4h-2z"/><path d="m30.778 37.779h2v4h-2z" transform="matrix(.707 -.707 .707 .707 -18.82 34.122)"/><path d="m28.243 26.343-2.958 2.957c-.391-.187-.823-.3-1.285-.3-1.654 0-3 1.346-3 3s1.346 3 3 3 3-1.346 3-3c0-.462-.113-.894-.301-1.285l2.958-2.957zm-4.243 6.657c-.552 0-1-.449-1-1s.448-1 1-1 1 .449 1 1-.448 1-1 1z"/><path d="m10.729 55.785 1.238-1.57c-2.368-1.867-4.026-4.505-4.667-7.429l-1.953.428c.74 3.375 2.651 6.419 5.382 8.571z"/><path d="m5.956 36.767c-.634 2.638-.956 5.072-.956 7.233 0 .359.013.718.038 1.071l1.994-.143c-.021-.306-.032-.615-.032-.928 0-2.004.303-4.28.901-6.767z"/><path d="m58 49c-2.414 0-4.434 1.721-4.899 4h-1.357l-3.732-12.439-3.762 12.225-1.415-7.786h-3.886c.018-.333.051-.662.051-1 0-2.673-.459-5.706-1.316-9h1.316c1.103 0 2-.897 2-2h17c2.757 0 5-2.243 5-5s-2.243-5-5-5h-10c-.552 0-1-.449-1-1v-1c1.103 0 2-.897 2-2v-2.556c1.19-.694 2-1.97 2-3.444v-7c0-2.757-2.243-5-5-5s-5 2.243-5 5v7c0 1.474.81 2.75 2 3.444v2.556c0 1.103.897 2 2 2v1c0 1.654 1.346 3 3 3h10c1.654 0 3 1.346 3 3s-1.346 3-3 3h-17c0-1.103-.897-2-2-2h-2.363c.154.65.26 1.317.313 2h-3.95v2h3.949c-.023.3-.061.596-.104.89-.147 1.004-.403 1.972-.767 2.888.609 2.636.922 5.059.922 7.222 0 9.374-7.626 17-17 17s-17-7.626-17-17c0-14.428 13.516-35.147 17.001-40.249 1.749 2.555 6.018 9.029 9.828 16.645.944.476 1.825 1.059 2.622 1.739l-2.794 2.794 1.414 1.414 2.828-2.829-.684-.684c-5.252-11.433-12.333-21.315-12.403-21.414l-.812-1.127-.812 1.127c-.743 1.031-18.188 25.459-18.188 42.584 0 10.477 8.523 19 19 19 9.453 0 17.294-6.947 18.739-16h2.426l2.585 14.214 4.238-13.774 2.268 7.56h2.845c.465 2.279 2.484 4 4.899 4 2.757 0 5-2.243 5-5s-2.243-5-5-5zm-15-43c0-1.654 1.346-3 3-3s3 1.346 3 3v7c0 1.103-.897 2-2 2h-2c-1.103 0-2-.897-2-2zm4 11v2h-2v-2zm-10 14h2v2h-2zm21 26c-1.654 0-3-1.346-3-3s1.346-3 3-3 3 1.346 3 3-1.346 3-3 3z"/></g></g></svg>