<svg id="Layer_1" enable-background="new 0 0 512 512" height="512" viewBox="0 0 512 512" width="512" xmlns="http://www.w3.org/2000/svg"><g><path d="m478.38 215.446c1.778-11.423 2.677-22.987 2.677-34.469 0-11.764-1.502-23.455-4.465-34.748-1.053-4.006-5.153-6.403-9.158-5.351-4.007 1.051-6.402 5.151-5.352 9.158 2.638 10.051 3.975 20.46 3.975 30.941 0 10.718-.841 21.513-2.501 32.179-24.055.052-44.039 17.766-47.648 40.836h-56.168c-2.374 0-4.608 1.125-6.023 3.032l-22.675 30.566-22.359-30.529c-1.658-2.264-4.439-3.414-7.217-2.977-2.773.436-5.07 2.385-5.953 5.05l-23.103 69.721-25.488-178.422c-.498-3.484-3.351-6.153-6.86-6.418-3.521-.271-6.731 1.946-7.746 5.315l-28.794 95.591-19.48-26.597c-1.408-1.922-3.646-3.061-6.028-3.068h-.022c-2.374 0-4.608 1.124-6.023 3.031l-26.488 35.706h-86.5c-8.665-23.957-13.036-48.385-13.036-73.015 0-67.25 54.712-121.961 121.961-121.961 30.882 0 60.355 11.577 82.993 32.598 2.877 2.673 7.33 2.673 10.207 0 22.637-21.021 52.111-32.598 82.993-32.598 43.856 0 84.563 23.798 106.237 62.107 2.038 3.605 6.614 4.874 10.221 2.835 3.604-2.04 4.874-6.616 2.834-10.221-24.33-43.006-70.04-69.721-119.292-69.721-32.405 0-63.427 11.349-88.097 32.095-24.67-20.747-55.691-32.095-88.097-32.095-75.521 0-136.961 61.44-136.961 136.961 0 24.646 4.07 49.062 12.143 73.015h-35.587c-4.143 0-7.5 3.358-7.5 7.5s3.357 7.5 7.5 7.5h41.188c4.74 11.547 10.422 22.974 17.04 34.251 18.066 30.783 43.107 60.484 74.427 88.278 1.429 1.268 3.205 1.891 4.976 1.891 2.07 0 4.131-.852 5.612-2.522 2.75-3.098 2.467-7.838-.631-10.588-30.141-26.747-54.179-55.228-71.446-84.651-5.165-8.802-9.724-17.693-13.674-26.659h84.261c2.375 0 4.608-1.125 6.023-3.032l22.675-30.565 22.36 30.529c1.681 2.295 4.514 3.442 7.318 2.96 2.803-.48 5.094-2.505 5.914-5.229l23.334-77.464 25.194 176.362c.492 3.446 3.291 6.1 6.758 6.41.225.02.449.03.671.03 3.205 0 6.092-2.051 7.115-5.141l28.56-86.192 19.776 27.002c1.408 1.922 3.646 3.061 6.027 3.068 2.377-.021 4.628-1.118 6.047-3.032l26.488-35.706h52.393c1.797 11.49 7.656 21.651 16.058 28.964-17.16 28.606-40.725 56.298-70.078 82.346-51.161 45.402-101.503 69.765-103.62 70.78l-2.266 1.085-2.267-1.085c-1.478-.708-36.662-17.71-77.923-49.534-3.28-2.53-7.989-1.92-10.519 1.358-2.53 3.28-1.922 7.99 1.358 10.52 42.497 32.777 79.064 50.446 80.602 51.183l5.508 2.639c1.024.491 2.132.736 3.24.736s2.216-.246 3.24-.736l5.509-2.639c2.195-1.052 54.376-26.304 107.096-73.087 30.403-26.981 54.89-55.759 72.824-85.582 5.834 2.502 12.255 3.889 18.994 3.889 26.653 0 48.337-21.684 48.337-48.337.001-21.524-14.14-39.806-33.619-46.047zm-14.717 79.383c-18.382 0-33.337-14.955-33.337-33.337s14.955-33.337 33.337-33.337 33.337 14.955 33.337 33.337-14.955 33.337-33.337 33.337z"/></g></svg>