<?xml version="1.0" encoding="iso-8859-1"?>
<!-- Generator: Adobe Illustrator 18.1.1, SVG Export Plug-In . SVG Version: 6.00 Build 0)  -->
<svg version="1.1" id="Capa_1" xmlns="http://www.w3.org/2000/svg" xmlns:xlink="http://www.w3.org/1999/xlink" x="0px" y="0px"
	 viewBox="0 0 25.636 25.636" style="enable-background:new 0 0 25.636 25.636;" xml:space="preserve">
<g>
	<path style="fill:#030104;" d="M12.209,23.049L12.209,23.049c-1.825,0-3.571-0.461-5.165-1.352c-1.694,0.776-2.84,2.249-2.84,3.939
		h11.68c0-1.044-0.766-2.25-1.695-2.768C13.553,22.983,12.892,23.049,12.209,23.049z"/>
	<circle style="fill:#030104;" cx="13.977" cy="9.636" r="2"/>
	<path style="fill:#030104;" d="M16.664,11.348c-0.422,0.341-0.917,1.487-0.683,1.881c1.111,1.874,1.43,3.547,0.655,4.321
		c-1.193,1.193-4.521-0.199-7.431-3.109C6.293,11.53,4.901,8.204,6.096,7.009c0.73-0.731,2.266-0.49,4.015,0.478
		c0.409,0.226,1.571-0.273,1.905-0.7c-3.055-2.086-6.11-2.691-7.55-1.251c-1.862,1.862-4.637,7.493,0.756,12.887
		c4.933,4.934,11.023,2.619,12.886,0.757C19.593,17.695,18.909,14.493,16.664,11.348z"/>
	
		<polyline style="fill:none;stroke:#030104;stroke-width:1.6547;stroke-linecap:round;stroke-linejoin:round;stroke-miterlimit:10;" points="
		9.477,10.136 13.977,9.636 13.477,14.136 	"/>
	
		<line style="fill:none;stroke:#030104;stroke-width:2;stroke-linecap:round;stroke-linejoin:round;stroke-miterlimit:10;" x1="17.392" y1="6.221" x2="18.977" y2="4.636"/>
	
		<line style="fill:none;stroke:#030104;stroke-width:2;stroke-linecap:round;stroke-linejoin:round;stroke-miterlimit:10;" x1="20.977" y1="2.585" x2="22.562" y2="1"/>
</g>
<g>
</g>
<g>
</g>
<g>
</g>
<g>
</g>
<g>
</g>
<g>
</g>
<g>
</g>
<g>
</g>
<g>
</g>
<g>
</g>
<g>
</g>
<g>
</g>
<g>
</g>
<g>
</g>
<g>
</g>
</svg>
