<?xml version="1.0" encoding="iso-8859-1"?>
<!-- Generator: Adobe Illustrator 19.0.0, SVG Export Plug-In . SVG Version: 6.00 Build 0)  -->
<svg version="1.1" id="Capa_1" xmlns="http://www.w3.org/2000/svg" xmlns:xlink="http://www.w3.org/1999/xlink" x="0px" y="0px"
	 viewBox="0 0 512 512" style="enable-background:new 0 0 512 512;" xml:space="preserve">
<g>
	<g>
		<path d="M440.846,64.594L259.572,0.609c-2.312-0.812-4.832-0.812-7.144,0L71.154,64.594C66.874,66.104,64,70.155,64,74.706v127.97
			c0,165.638,24.565,226.176,187.168,308.168c1.52,0.771,3.176,1.156,4.832,1.156c1.656,0,3.311-0.385,4.832-1.156
			C423.435,428.853,448,368.315,448,202.677V74.706C448,70.155,445.126,66.104,440.846,64.594z M362.667,288
			c0,5.896-4.771,10.667-10.667,10.667h-53.333V352c0,5.896-4.771,10.667-10.667,10.667h-64c-5.896,0-10.667-4.771-10.667-10.667
			v-53.333H160c-5.896,0-10.667-4.771-10.667-10.667v-64c0-5.896,4.771-10.667,10.667-10.667h53.333V160
			c0-5.896,4.771-10.667,10.667-10.667h64c5.896,0,10.667,4.771,10.667,10.667v53.333H352c5.896,0,10.667,4.771,10.667,10.667V288z"
			/>
	</g>
</g>
<g>
</g>
<g>
</g>
<g>
</g>
<g>
</g>
<g>
</g>
<g>
</g>
<g>
</g>
<g>
</g>
<g>
</g>
<g>
</g>
<g>
</g>
<g>
</g>
<g>
</g>
<g>
</g>
<g>
</g>
</svg>
