<svg id="Capa_1" enable-background="new 0 0 512 512" height="512" viewBox="0 0 512 512" width="512" xmlns="http://www.w3.org/2000/svg"><g><path d="m317.029 151c-17.945-10.47-38.797-16.479-61.029-16.479s-43.084 6.008-61.029 16.479h-194.971v41.701c0 23.183 16.421 42.597 38.242 47.238v12.762c0 25.4 19.713 46.269 44.642 48.146v11.854c0 26.632 21.667 48.299 48.299 48.299h63.788c17.945 10.47 38.797 16.479 61.029 16.479s43.084-6.008 61.029-16.479h63.789c26.632 0 48.299-21.667 48.299-48.299v-11.854c24.928-1.877 44.642-22.746 44.642-48.146v-12.762c21.82-4.641 38.242-24.055 38.242-47.238v-41.701zm-287.029 41.701v-11.701h130.501c-7.126 9.054-12.99 19.144-17.335 30h-94.867c-10.09 0-18.299-8.209-18.299-18.299zm38.242 60v-11.701h67.205c-.608 4.917-.926 9.922-.926 15s.318 10.083.926 15h-48.906c-10.09 0-18.299-8.209-18.299-18.299zm44.642 60v-11.701h30.282c4.345 10.856 10.209 20.946 17.335 30h-29.318c-10.09 0-18.299-8.209-18.299-18.299zm51.637-56.701c0-50.441 41.037-91.479 91.479-91.479 50.441 0 91.479 41.037 91.479 91.479s-41.038 91.479-91.479 91.479c-50.442 0-91.479-41.038-91.479-91.479zm216.296 75h-29.319c7.126-9.054 12.99-19.144 17.335-30h30.282v11.701c.001 10.09-8.208 18.299-18.298 18.299zm44.642-60h-48.907c.608-4.917.926-9.922.926-15s-.318-10.083-.926-15h67.205v11.701c.001 10.09-8.208 18.299-18.298 18.299zm56.541-78.299c0 10.09-8.209 18.299-18.299 18.299h-94.867c-4.345-10.856-10.209-20.946-17.335-30h130.501z"/><path d="m256 194.521c-33.899 0-61.479 27.579-61.479 61.479s27.58 61.479 61.479 61.479 61.479-27.579 61.479-61.479-27.58-61.479-61.479-61.479zm0 92.958c-17.357 0-31.479-14.121-31.479-31.479s14.122-31.479 31.479-31.479 31.479 14.121 31.479 31.479-14.122 31.479-31.479 31.479z"/></g></svg>