<svg height="512pt" viewBox="0 0 512 512" width="512pt" xmlns="http://www.w3.org/2000/svg"><path d="m133.230469 207h77.753906c21.417969 59.964844 78.78125 103 146.015625 103 85.46875 0 155-69.53125 155-155s-69.53125-155-155-155c-82.785156 0-150.617188 65.234375-154.796875 147h-68.972656c-11.253907-23.628906-35.363281-40-63.230469-40-38.597656 0-70 31.402344-70 70 0 27.769531 16.253906 51.8125 39.746094 63.117188l60.160156 171.882812h-29.90625c-38.597656 0-70 31.402344-70 70v20c0 5.523438 4.476562 10 10 10h340c5.523438 0 10-4.476562 10-10v-20c0-33.09375-23.089844-60.875-54-68.132812v-31.867188c0-5.523438-4.476562-10-10-10h-10c0-5.523438-4.476562-10-10-10s-10 4.476562-10 10h-10c-5.523438 0-10 4.476562-10 10v30h-74.90625l-61.949219-176.996094c10.324219-6.988281 18.683594-16.660156 24.085938-28.003906zm223.769531-187c74.4375 0 135 60.5625 135 135s-60.5625 135-135 135-135-60.5625-135-135 60.5625-135 135-135zm-154.539062 147c.523437 6.796875 1.492187 13.472656 2.867187 20h-66.054687c.46875-3.269531.726562-6.605469.726562-10s-.253906-6.730469-.726562-10zm-182.460938 10c0-27.570312 22.429688-50 50-50s50 22.429688 50 50-22.429688 50-50 50-50-22.429688-50-50zm80 315v-20h160v20zm240-10v10h-60v-30c0-5.523438-4.476562-10-10-10h-180c-5.523438 0-10 4.476562-10 10v30h-60v-10c0-27.570312 22.429688-50 50-50h220c27.570312 0 50 22.429688 50 50zm-74-90h20v20h-20zm-116.09375 20h-28.8125l-57.867188-165.332031c2.230469.214843 4.488282.332031 6.773438.332031 7.324219 0 14.386719-1.136719 21.023438-3.230469zm0 0"/><path d="m100 177c0-16.542969-13.457031-30-30-30s-30 13.457031-30 30 13.457031 30 30 30 30-13.457031 30-30zm-40 0c0-5.515625 4.484375-10 10-10s10 4.484375 10 10-4.484375 10-10 10-10-4.484375-10-10zm0 0"/><path d="m356.988281 60h.023438c5.507812-.011719 9.976562-4.488281 9.976562-10s-4.476562-10-10-10c-5.507812 0-10 4.488281-10 10 0 5.519531 4.492188 10 10 10zm0 0"/><path d="m312.363281 260.65625c13.800781 6 28.910157 9.34375 44.636719 9.34375 62.359375 0 115-52.726562 115-115 0-46.398438-29.183594-89.546875-72.246094-106.789062-4.738281-1.898438-10.949218.449218-13.003906 5.558593-2.050781 5.121094.4375 10.949219 5.558594 13.007813 36.269531 14.542968 59.703125 49.171875 59.691406 88.222656-.011719 25.359375-9.890625 49.21875-27.820312 67.179688-17.960938 17.929687-41.820313 27.808593-67.179688 27.820312-25.359375-.011719-49.21875-9.890625-67.179688-27.820312-17.929687-17.960938-27.820312-41.808594-27.820312-67.179688-.011719-39.050781 23.410156-73.679688 59.679688-88.21875 5.117187-2.050781 7.617187-7.886719 5.5625-12.996094-1.925782-4.789062-7.890626-7.578125-13-5.574218-43.253907 16.957031-72.222657 60.515624-72.242188 106.789062-.019531 46.691406 29.429688 87.863281 70.363281 105.65625zm0 0"/></svg>